<svg xmlns="http://www.w3.org/2000/svg" width="40" height="40" viewBox="0 0 40 40" role="img" aria-label="LinkedIn">
<style>
  .bg{fill:#f6f8fa;stroke:#d1d9e0} .s{stroke:#1f2328} .f{fill:#1f2328}
  .muted-s{stroke:#59636e} .muted-f{fill:#59636e} .line{fill:none;stroke:#d1d9e0} .accent-s{stroke:#0c8a56} .live-f{fill:#2d8a4e} .live-s{stroke:#2d8a4e}
  @media (prefers-color-scheme:dark){
    .bg{fill:#151b23;stroke:#3d444d} .s{stroke:#e6edf3} .f{fill:#e6edf3}
    .muted-s{stroke:#9198a1} .muted-f{fill:#9198a1} .line{stroke:#3d444d} .accent-s{stroke:#14f195} .live-f{fill:#63c28a} .live-s{stroke:#63c28a}
  }
</style>
<rect class="bg" x=".5" y=".5" width="39" height="39" rx="10"/>
<g transform="translate(10.5 10.5) scale(0.7916666666666666)"><path fill="#0a66c2" d="M20.447 20.452h-3.554v-5.569c0-1.328-.027-3.037-1.852-3.037-1.853 0-2.136 1.445-2.136 2.939v5.667H9.351V9h3.414v1.561h.046c.477-.9 1.637-1.85 3.37-1.85 3.601 0 4.267 2.37 4.267 5.455v6.286zM5.337 7.433c-1.144 0-2.063-.926-2.063-2.065 0-1.138.92-2.063 2.063-2.063 1.14 0 2.064.925 2.064 2.063 0 1.139-.925 2.065-2.064 2.065zm1.782 13.019H3.555V9h3.564v11.452zM22.225 0H1.771C.792 0 0 .774 0 1.729v20.542C0 23.227.792 24 1.771 24h20.451C23.2 24 24 23.227 24 22.271V1.729C24 .774 23.2 0 22.222 0h.003z"/></g>
</svg>
